<svg data-name="logo" xmlns="http://www.w3.org/2000/svg" xmlns:xlink="http://www.w3.org/1999/xlink" viewBox="0 0 303.53 167.76"><defs><linearGradient id="g_55" x1="552.11" y1="537.5" x2="629.38" y2="537.5" gradientUnits="userSpaceOnUse"><stop offset="0" stop-color="#00d7ff"/><stop offset="0.24" stop-color="#00ceff"/><stop offset="0.65" stop-color="#00b4ff"/><stop offset="1" stop-color="#09f"/></linearGradient><linearGradient id="g_59" x1="534.17" y1="476.15" x2="652" y2="476.15" gradientUnits="userSpaceOnUse"><stop offset="0.01" stop-color="#09f"/><stop offset="0.36" stop-color="#00b4ff"/><stop offset="0.76" stop-color="#00ceff"/><stop offset="1" stop-color="#00d7ff"/></linearGradient><linearGradient id="g_61" x1="208.33" y1="32.98" x2="219.66" y2="32.98" gradientUnits="userSpaceOnUse"><stop offset="0" stop-color="#00d7ff"/><stop offset="0.24" stop-color="#00ceff"/><stop offset="0.64" stop-color="#00b4ff"/><stop offset="0.99" stop-color="#09f"/></linearGradient><linearGradient id="g_61-2" x1="506.86" y1="470.49" x2="568.12" y2="470.49" xlink:href="#g_61"/><linearGradient id="g_59-2" x1="432.35" y1="531.75" x2="493.61" y2="531.75" xlink:href="#g_59"/><linearGradient id="g_55-2" x1="348.47" y1="526.08" x2="466.29" y2="526.08" xlink:href="#g_55"/><linearGradient id="g_62" x1="371.09" y1="464.8" x2="448.36" y2="464.8" gradientUnits="userSpaceOnUse"><stop offset="0" stop-color="#09f"/><stop offset="0.35" stop-color="#00b4ff"/><stop offset="0.76" stop-color="#00ceff"/><stop offset="1" stop-color="#00d7ff"/></linearGradient><linearGradient id="g_62-2" x1="375.78" y1="501.11" x2="398.41" y2="501.11" xlink:href="#g_62"/></defs><path d="M624.68,512.43a16,16,0,0,1,0,22.63l-45.25,45.25a16,16,0,0,1-22.63-22.63l45.26-45.25a16,16,0,0,0,.19-22.43Z" transform="translate(-348.47 -417.23)" style="fill:url(#g_55)"/><path d="M602.25,490l-34.13-34.13h0L556.8,444.55a16,16,0,0,0-22.63,0l22.63-22.63a16,16,0,0,1,22.63,0l67.88,67.88a16,16,0,0,1,0,22.63l-22.63,22.63a16,16,0,0,0,0-22.63Z" transform="translate(-348.47 -417.23)" style="fill:url(#g_59)"/><polygon points="219.66 38.63 219.66 38.64 208.34 27.32 219.66 38.63" style="fill:url(#g_61)"/><path d="M534.17,444.55a16,16,0,0,1,22.63,0l11.32,11.32-45.26,45.25L511.55,489.8a16,16,0,0,1,0-22.63Z" transform="translate(-348.47 -417.23)" style="fill:url(#g_61-2)"/><path d="M466.29,557.68a16,16,0,0,1-22.62,0l-11.32-11.31,45.26-45.25,11.31,11.31a16,16,0,0,1,0,22.63Z" transform="translate(-348.47 -417.23)" style="fill:url(#g_59-2)"/><path d="M443.67,557.68a16,16,0,0,0,22.62,0l-22.62,22.63a16,16,0,0,1-22.63,0l-67.88-67.88a16,16,0,0,1,0-22.63l22.62-22.63a16,16,0,0,0,0,22.63l22.63,22.63,33.94,33.94Z" transform="translate(-348.47 -417.23)" style="fill:url(#g_55-2)"/><path d="M421,421.92a16,16,0,0,1,22.63,22.63L398.41,489.8a16,16,0,0,0-.06,22.56L375.78,489.8a16,16,0,0,1,0-22.63Z" transform="translate(-348.47 -417.23)" style="fill:url(#g_62)"/><path d="M398.35,512.36l.06.07L375.78,489.8Z" transform="translate(-348.47 -417.23)" style="fill:url(#g_62-2)"/></svg>