<svg data-name="empty" xmlns="http://www.w3.org/2000/svg" xmlns:xlink="http://www.w3.org/1999/xlink" viewBox="0 0 440 280"><rect x="0" y="0" width="440" height="280" fill="#888" /><g transform="translate(60 60)"><path d="M624.68,512.43a16,16,0,0,1,0,22.63l-45.25,45.25a16,16,0,0,1-22.63-22.63l45.26-45.25a16,16,0,0,0,.19-22.43Z" transform="translate(-348.47 -417.23)" fill="#fff" /><path d="M602.25,490l-34.13-34.13h0L556.8,444.55a16,16,0,0,0-22.63,0l22.63-22.63a16,16,0,0,1,22.63,0l67.88,67.88a16,16,0,0,1,0,22.63l-22.63,22.63a16,16,0,0,0,0-22.63Z" transform="translate(-348.47 -417.23)" fill="#fff" /><polygon points="219.66 38.63 219.66 38.64 208.34 27.32 219.66 38.63" fill="#fff" /><path d="M534.17,444.55a16,16,0,0,1,22.63,0l11.32,11.32-45.26,45.25L511.55,489.8a16,16,0,0,1,0-22.63Z" transform="translate(-348.47 -417.23)" fill="#fff" /><path d="M466.29,557.68a16,16,0,0,1-22.62,0l-11.32-11.31,45.26-45.25,11.31,11.31a16,16,0,0,1,0,22.63Z" transform="translate(-348.47 -417.23)" fill="#fff" /><path d="M443.67,557.68a16,16,0,0,0,22.62,0l-22.62,22.63a16,16,0,0,1-22.63,0l-67.88-67.88a16,16,0,0,1,0-22.63l22.62-22.63a16,16,0,0,0,0,22.63l22.63,22.63,33.94,33.94Z" transform="translate(-348.47 -417.23)" fill="#fff" /><path d="M421,421.92a16,16,0,0,1,22.63,22.63L398.41,489.8a16,16,0,0,0-.06,22.56L375.78,489.8a16,16,0,0,1,0-22.63Z" transform="translate(-348.47 -417.23)" fill="#fff" /><path d="M398.35,512.36l.06.07L375.78,489.8Z" transform="translate(-348.47 -417.23)" fill="#fff" /></g></svg>